<?xml version="1.0" encoding="iso-8859-1"?>
<!-- Generator: Adobe Illustrator 16.0.0, SVG Export Plug-In . SVG Version: 6.00 Build 0)  -->
<!DOCTYPE svg PUBLIC "-//W3C//DTD SVG 1.1//EN" "http://www.w3.org/Graphics/SVG/1.1/DTD/svg11.dtd">
<svg xmlns="http://www.w3.org/2000/svg" xmlns:xlink="http://www.w3.org/1999/xlink" version="1.1" id="Capa_1" x="0px" y="0px" width="512px" height="512px" viewBox="0 0 293.63 293.63" style="enable-background:new 0 0 293.63 293.63;" xml:space="preserve">
<g>
	<g>
		<path d="M69.599,293.63h188.322V62.023h-10.778V0H70.332c-19.056,0-34.56,15.504-34.56,34.56l-0.063,232.824    C38.699,282.318,52.724,293.63,69.599,293.63z M236.342,17.721v31.614C231.696,39.366,230.742,26.491,236.342,17.721z     M70.332,10.8h161.032c-11.296,14.057-7.752,37.763,3.459,51.224H64.565l-0.206-0.237c-7.409-0.772-12.332-5.35-14.939-10.848    c-1.427-3.003-2.173-6.212-2.286-9.176l-0.522-8.374C46.606,20.281,57.228,10.8,70.332,10.8z" fill="#757575"/>
	</g>
</g>
<g>
</g>
<g>
</g>
<g>
</g>
<g>
</g>
<g>
</g>
<g>
</g>
<g>
</g>
<g>
</g>
<g>
</g>
<g>
</g>
<g>
</g>
<g>
</g>
<g>
</g>
<g>
</g>
<g>
</g>
</svg>
