<?xml version="1.0" encoding="iso-8859-1"?>
<!-- Generator: Adobe Illustrator 16.0.0, SVG Export Plug-In . SVG Version: 6.00 Build 0)  -->
<!DOCTYPE svg PUBLIC "-//W3C//DTD SVG 1.1//EN" "http://www.w3.org/Graphics/SVG/1.1/DTD/svg11.dtd">
<svg xmlns="http://www.w3.org/2000/svg" xmlns:xlink="http://www.w3.org/1999/xlink" version="1.1" id="Capa_1" x="0px" y="0px" width="512px" height="512px" viewBox="0 0 912.1 912.1" style="enable-background:new 0 0 912.1 912.1;" xml:space="preserve">
<g>
	<g>
		<path d="M504.607,574.9c102.8,0,186.4-83.601,186.4-186.4s-83.601-186.4-186.4-186.4c-102.799,0-186.4,83.6-186.4,186.4    S401.808,574.9,504.607,574.9z" fill="#2f3842"/>
		<g>
			<path d="M346.108,611.9c-71.8,0-130,58.199-130,130V887.1c0,13.801,11.2,25,25,25h527c13.8,0,25-11.199,25-25V745.5     c2.2-3.8,4.2-7.9,5.8-12.2l102-270c3.4-9,5.2-18.6,5.2-28.3V132c0-44.2-35.8-80-80-80s-80,35.8-80,80v288.4l-72.3,191.5H346.108z     " fill="#2f3842"/>
		</g>
	</g>
</g>
<g>
</g>
<g>
</g>
<g>
</g>
<g>
</g>
<g>
</g>
<g>
</g>
<g>
</g>
<g>
</g>
<g>
</g>
<g>
</g>
<g>
</g>
<g>
</g>
<g>
</g>
<g>
</g>
<g>
</g>
</svg>
